<?xml version="1.0" encoding="utf-8"?>
<!-- Generator: Adobe Illustrator 24.0.2, SVG Export Plug-In . SVG Version: 6.00 Build 0)  -->
<svg version="1.1" id="Layer_1" xmlns="http://www.w3.org/2000/svg" xmlns:xlink="http://www.w3.org/1999/xlink" x="0px" y="0px"
	 viewBox="0 0 1213 600" style="enable-background:new 0 0 1213 600;" xml:space="preserve">
<style type="text/css">
	.st0{fill:#1B1464;}
	.st1{fill:#EE5A24;}
	.st2{fill:none;}
</style>
<g>
	<path class="st0" d="M809.4,294.5l265.7-168c-4.2-8-9.6-17.9-13.6-24.3C994.6-3.6,878.6-27,779.7,35.5
		c-35,22.1-61.2,50.9-77.9,83.2c6.5,0.3,13,0.7,19.5,1.4c1.2,0.2,2.4,0.4,3.6,0.6c8.9,1.6,17.3,1.4,25.3-3.3
		c0.2-0.1,0.3-0.2,0.5-0.3c1.5,2.4,3,4.9,4.3,7.3c-12.1,19.4-33.1,32.8-57.6,34.2c-3.7,0.2-7.4,0.1-11-0.2
		c-13.6,51.7-5.2,108.7,27.7,160.8c16.6,26.3,38.8,50.5,61.9,66.2c64.2,3.9,116.8-24.3,116.8-24.3
		C864.7,347.7,828.1,320.6,809.4,294.5z M775.5,242.3c-23.7-54.3-7.1-110.9,44.3-143.4c52-32.9,110.7-22.9,147.9,21.9L775.5,242.3z"
		/>
	<path class="st1" d="M660.7,28.9C660.7,28.9,660.7,28.9,660.7,28.9c-0.3-0.2-0.6-0.3-0.9-0.5c-0.3-0.2-0.6-0.3-1-0.5
		c-1-0.5-2-1-3-1.6c-0.3-0.2-0.6-0.3-0.9-0.5c-1.1-0.6-2.2-1.1-3.4-1.7c-0.2-0.1-0.3-0.2-0.5-0.3c-2.7-1.3-5.4-2.5-8.2-3.7
		c0,0-0.1,0-0.1-0.1c0,0,0,0,0,0C611.1,6.5,576.1-0.2,539.5,1.9c-44.7,2.6-85.6,17.9-119.4,42.3c3.4,7,5.3,14.8,5.3,23.1v26.4
		c0,1.9-0.1,3.8-0.3,5.6c5.2,8,9.9,16.3,14,24.9c0.4,0.6,0.7,1.3,1.1,1.9c3,5.7,5.8,11.5,8.4,17.3c23-28,57.2-46.7,96.2-48.9
		c2.1-0.1,4.1-0.2,6.2-0.2c0.6,0,1.2,0,1.8,0c1.6,0,3.1,0,4.7,0.1c0.5,0,1.1,0,1.6,0.1c2,0.1,4,0.2,6,0.4c0.4,0,0.8,0.1,1.2,0.1
		c1.6,0.2,3.2,0.4,4.8,0.6c0.6,0.1,1.3,0.2,1.9,0.3c1.5,0.2,3,0.5,4.5,0.8c0.5,0.1,1,0.2,1.5,0.3c1.9,0.4,3.7,0.8,5.6,1.2
		c0.6,0.2,1.2,0.3,1.8,0.5c1.3,0.3,2.6,0.7,3.9,1.1c0.7,0.2,1.4,0.4,2.1,0.6c1.4,0.4,2.8,0.9,4.2,1.4c0.7,0.2,1.4,0.5,2.1,0.7
		c1.5,0.5,2.9,1.1,4.3,1.7c0.8,0.3,1.5,0.6,2.3,1c1,0.4,2,0.9,3,1.3c0.8,0.4,1.6,0.7,2.4,1.1c1.2,0.6,2.4,1.2,3.6,1.8
		c1.1,0.6,2.3,1.2,3.4,1.8c0.8,0.5,1.6,0.9,2.5,1.4c0.9,0.5,1.8,1,2.7,1.6c0.3,0.2,0.6,0.3,0.8,0.5v0c0.4,0.3,0.8,0.5,1.2,0.8
		c3.2,2.1,6.4,4.3,9.4,6.6c0.5,0.4,1,0.7,1.4,1.1c1,0.8,1.9,1.5,2.9,2.3c0.3,0.3,0.7,0.6,1,0.8c3.2,2.7,6.3,5.6,9.3,8.6
		c0.2,0.3,0.5,0.5,0.7,0.8c3.1,3.3,6.1,6.7,8.9,10.2c0,0,0,0,0.1,0.1c0.2,0.2,0.3,0.4,0.5,0.6v0c0.1,0.1,0.1,0.1,0.2,0.2
		c0,0,0.1-0.1,0.1-0.1c10.1,4.3,21.4,6.4,33.1,5.8c24.9-1.4,46.2-15.1,58.5-34.7C729.7,80,698.3,49.3,660.7,28.9z"/>
	<path class="st0" d="M227.1,454.1c125.4,0,227-101.6,227-227c0-45.4-13.4-87.6-36.3-123c0.2-1.8,0.3-3.6,0.3-5.4V73.2
		c0-28.1-22.7-50.8-50.8-50.8c-10,0-19.2,2.9-27.1,7.9C306.9,11,268.3,0,227.1,0C101.7,0,0,101.7,0,227
		C0,352.4,101.7,454.1,227.1,454.1z M227.1,87.6c77,0,139.5,62.4,139.5,139.5c0,77-62.4,139.5-139.5,139.5
		C150,366.5,87.6,304,87.6,227C87.6,150,150,87.6,227.1,87.6z"/>
	<path class="st1" d="M732.3,359.1c-9.3-10.6-18-22.3-25.5-34.4c-4.7-7.7-8.9-15.5-12.6-23.3c-1.9-0.2-3.9-0.4-5.9-0.4
		c-11.8-0.4-23,2-33,6.6c0,0-0.1-0.1-0.1-0.1c-0.1,0.1-0.1,0.1-0.2,0.2v0c-0.1,0.2-0.3,0.4-0.4,0.6c0,0,0,0,0,0.1
		c-2.7,3.6-5.6,7.1-8.7,10.4c-0.2,0.3-0.5,0.5-0.7,0.8c-2.9,3.1-5.9,6-9,8.8c-0.3,0.3-0.6,0.6-1,0.9c-0.9,0.8-1.9,1.6-2.8,2.4
		c-0.5,0.4-0.9,0.8-1.4,1.1c-3,2.4-6.1,4.7-9.3,6.8c-0.4,0.3-0.8,0.5-1.2,0.8v0c-0.3,0.2-0.5,0.4-0.8,0.5c-0.9,0.6-1.7,1.1-2.6,1.7
		c-0.8,0.5-1.6,1-2.4,1.4c-1.1,0.6-2.2,1.3-3.3,1.9c-1.2,0.6-2.3,1.3-3.5,1.9c-0.8,0.4-1.6,0.8-2.3,1.2c-1,0.5-2,0.9-3,1.4
		c-0.8,0.3-1.5,0.7-2.3,1c-1.4,0.6-2.8,1.2-4.3,1.8c-0.7,0.3-1.4,0.5-2.1,0.8c-1.4,0.5-2.7,1-4.1,1.5c-0.7,0.2-1.4,0.5-2.1,0.7
		c-1.3,0.4-2.6,0.8-3.9,1.2c-0.6,0.2-1.2,0.4-1.8,0.5c-1.8,0.5-3.7,1-5.5,1.4c-0.5,0.1-1,0.2-1.5,0.3c-1.5,0.3-3,0.6-4.5,0.9
		c-0.6,0.1-1.3,0.2-1.9,0.3c-1.6,0.3-3.2,0.5-4.8,0.7c-0.4,0-0.8,0.1-1.2,0.2c-2,0.2-4,0.4-6,0.6c-0.5,0-1.1,0.1-1.6,0.1
		c-1.6,0.1-3.1,0.2-4.7,0.2c-0.6,0-1.2,0-1.8,0c-2.1,0-4.1,0-6.2,0c-39.1-1.3-73.7-19.1-97.4-46.5c-2.5,5.9-5.1,11.7-8,17.5
		c-11.6,23.1-26.3,43.9-43.6,62.1c38.6,35.4,89.5,57.7,146,59.5c36.6,1.2,71.5-6.3,102.7-20.7c0,0,0,0,0,0c0,0,0.1,0,0.1-0.1
		c2.7-1.3,5.4-2.6,8.1-3.9c0.2-0.1,0.3-0.2,0.5-0.3c1.1-0.6,2.2-1.2,3.3-1.8c0.3-0.2,0.6-0.3,0.9-0.5c1-0.5,2-1.1,3-1.6
		c0.3-0.2,0.6-0.4,0.9-0.5c0.3-0.2,0.6-0.3,0.9-0.5c0,0,0,0,0,0C688.5,408.5,713.3,386,732.3,359.1z"/>
	<path class="st0" d="M726.2,382.2c0,0,133.2,96,365.4-144.1l-50.6-40.6l172.1-33.8l-12.7,156.9l-35.4-28
		C1164.9,292.8,965.3,585.1,726.2,382.2z"/>
	<path class="st2" d="M227.1,366.5c77,0,139.5-62.4,139.5-139.5c0-77-62.4-139.5-139.5-139.5C150,87.6,87.6,150,87.6,227
		C87.6,304,150,366.5,227.1,366.5z"/>
	<path class="st0" d="M297.5,493.3c-20.7,12.1-44.7,19.1-70.4,19.1c-25.7,0-49.8-7-70.5-19.1c-39.2-23-83-36.9-128.4-36.9H15.8
		C49.1,540.6,131.2,600,227.1,600c95.9,0,177.9-59.4,211.2-143.5h-12.4C380.5,456.5,336.7,470.4,297.5,493.3z"/>
</g>
<g>
</g>
<g>
</g>
<g>
</g>
<g>
</g>
<g>
</g>
<g>
</g>
<g>
</g>
<g>
</g>
<g>
</g>
<g>
</g>
<g>
</g>
<g>
</g>
<g>
</g>
<g>
</g>
<g>
</g>
</svg>
