<svg width="104" height="56" viewBox="0 0 104 56" fill="none" xmlns="http://www.w3.org/2000/svg">
<g clip-path="url(#clip0)">
<path d="M68.2561 27.5538L89.8307 13.8359C89.4958 13.179 89.0521 12.3706 88.7256 11.8569C83.2922 3.20008 73.8737 1.2885 65.8449 6.40008C63.0068 8.20218 60.872 10.5517 59.5157 13.1959C60.0432 13.2211 60.5706 13.2548 61.098 13.3138C61.1985 13.3306 61.299 13.3474 61.391 13.3643C62.111 13.4906 62.7892 13.4822 63.4506 13.0948C63.4673 13.0864 63.4757 13.078 63.4924 13.0695C63.6096 13.2632 63.7352 13.4653 63.844 13.6674C62.8645 15.2506 61.1566 16.3453 59.1641 16.4632C58.8627 16.4801 58.5613 16.4717 58.2683 16.4464C57.1716 20.6738 57.8413 25.3222 60.5204 29.5748C61.8683 31.7222 63.6682 33.7011 65.5436 34.9811C70.7593 35.3011 75.0207 33.0022 75.0207 33.0022C72.7435 31.899 69.7714 29.6843 68.2561 27.5538ZM65.5017 23.2843C63.5845 18.8548 64.924 14.2232 69.0933 11.5706C73.3128 8.88429 78.0764 9.70113 81.0987 13.3559L65.5017 23.2843Z" fill="white"/>
<path d="M56.1755 5.85265C56.1503 5.83581 56.1252 5.82738 56.1001 5.81054C56.075 5.7937 56.0499 5.78528 56.0248 5.76844C55.941 5.72633 55.8657 5.68423 55.782 5.64212C55.7568 5.62528 55.7317 5.61686 55.7066 5.60002C55.6145 5.55791 55.5224 5.50739 55.4303 5.46528C55.4136 5.45686 55.4052 5.44844 55.3885 5.44844C55.1708 5.33896 54.9448 5.23791 54.7271 5.14528C54.7271 5.14528 54.7187 5.14528 54.7187 5.13686C52.1569 4.02528 49.3104 3.47791 46.3383 3.65475C42.7133 3.86528 39.3896 5.12002 36.6436 7.10738C36.9198 7.68002 37.0789 8.31159 37.0789 8.9937V11.1495C37.0789 11.3011 37.0705 11.4526 37.0538 11.6042C37.4724 12.2526 37.8575 12.9348 38.1924 13.6421C38.2175 13.6926 38.251 13.7432 38.2761 13.8021C38.5273 14.2653 38.7449 14.7369 38.9542 15.2169C40.8212 12.9263 43.6007 11.4021 46.7653 11.2169C46.9328 11.2084 47.1002 11.2 47.2676 11.2C47.3179 11.2 47.3681 11.2 47.41 11.2C47.5355 11.2 47.6611 11.2 47.7951 11.2084C47.8369 11.2084 47.8788 11.2084 47.929 11.2169C48.0881 11.2253 48.2555 11.2337 48.4146 11.2505C48.4481 11.2505 48.4816 11.259 48.5067 11.259C48.6406 11.2758 48.7662 11.2842 48.9002 11.3095C48.9504 11.3179 49.0006 11.3263 49.0592 11.3348C49.1848 11.3516 49.302 11.3769 49.4276 11.3937C49.4695 11.4021 49.503 11.4105 49.5448 11.419C49.6955 11.4526 49.8462 11.4863 49.9969 11.52C50.0471 11.5284 50.0974 11.5453 50.1476 11.5621C50.2564 11.5874 50.3569 11.6211 50.4657 11.6463C50.5243 11.6632 50.5829 11.68 50.6332 11.6969C50.7504 11.7305 50.8592 11.7726 50.9764 11.8063C51.035 11.8232 51.0853 11.8484 51.1439 11.8653C51.2611 11.9074 51.3783 11.9495 51.4955 12C51.5541 12.0253 51.6211 12.0505 51.6797 12.0758C51.7634 12.1095 51.8388 12.1432 51.9225 12.1853C51.9894 12.219 52.048 12.2442 52.115 12.2779C52.2155 12.3284 52.3076 12.3705 52.408 12.4211C52.5001 12.4716 52.5922 12.5221 52.6843 12.5726C52.7513 12.6063 52.8183 12.6484 52.8853 12.6821C52.9606 12.7242 53.0276 12.7663 53.1029 12.8084C53.128 12.8253 53.1448 12.8337 53.1699 12.8505C53.2034 12.8674 53.2369 12.8926 53.2704 12.9095C53.5299 13.0779 53.7894 13.2548 54.0322 13.4484C54.0741 13.4821 54.1076 13.5074 54.1494 13.5411C54.2248 13.6 54.3085 13.6674 54.3838 13.7348C54.409 13.76 54.4341 13.7769 54.4676 13.8021C54.7271 14.0211 54.9783 14.2569 55.221 14.5011C55.2378 14.5179 55.2629 14.5432 55.2796 14.56C55.5308 14.8295 55.7736 15.1074 56.008 15.3937C56.008 15.3937 56.008 15.3937 56.008 15.4021C56.0248 15.419 56.0331 15.4358 56.0415 15.4526C56.0499 15.4611 56.0499 15.4611 56.0582 15.4695L56.0666 15.4611C56.8871 15.8148 57.808 15.9832 58.754 15.9326C60.7717 15.8147 62.5047 14.7032 63.501 13.0948C61.7763 10.0295 59.2312 7.52002 56.1755 5.85265Z" fill="#FF5500"/>
<path d="M20.963 40.5811C31.1434 40.5811 39.3982 32.2779 39.3982 22.0379C39.3982 18.3326 38.3098 14.88 36.4512 11.9832C36.468 11.84 36.4764 11.6884 36.4764 11.5453V9.4737C36.4764 7.18317 34.6261 5.32212 32.349 5.32212C31.5369 5.32212 30.7834 5.55791 30.1471 5.96212C27.443 4.3958 24.3035 3.49475 20.9547 3.49475C10.7743 3.49475 2.51953 11.7979 2.51953 22.0379C2.5279 32.2863 10.7827 40.5811 20.963 40.5811ZM20.963 10.6526C27.2169 10.6526 32.2904 15.7558 32.2904 22.0463C32.2904 28.3369 27.2169 33.44 20.963 33.44C14.7092 33.44 9.63573 28.3369 9.63573 22.0463C9.63573 15.7474 14.7092 10.6526 20.963 10.6526Z" fill="white"/>
<path d="M61.9942 32.8253C61.2324 31.9579 60.5291 31.0063 59.9263 30.0126C59.5412 29.3895 59.2063 28.7495 58.9049 28.1095C58.7459 28.0926 58.5868 28.0758 58.4277 28.0758C57.4733 28.0421 56.5608 28.2442 55.7487 28.6147L55.7403 28.6063C55.732 28.6147 55.732 28.6147 55.7236 28.6231C55.7152 28.64 55.6985 28.6568 55.6901 28.6737C55.6901 28.6737 55.6901 28.6737 55.6901 28.6821C55.4724 28.9768 55.238 29.2631 54.9868 29.5326C54.9701 29.5579 54.945 29.5747 54.9282 29.6C54.6938 29.8526 54.451 30.0884 54.1915 30.3242C54.1664 30.3495 54.1413 30.3747 54.1162 30.3916C54.0408 30.4589 53.9655 30.5263 53.8901 30.5853C53.8566 30.6189 53.8148 30.6442 53.7729 30.6779C53.5301 30.8716 53.279 31.0568 53.0194 31.2337C52.9859 31.2589 52.9525 31.2758 52.919 31.301C52.8938 31.3179 52.8771 31.3347 52.852 31.3431C52.785 31.3853 52.7097 31.4358 52.6427 31.4779C52.5757 31.52 52.5087 31.5537 52.4501 31.5958C52.358 31.6463 52.2743 31.6968 52.1822 31.7474C52.0901 31.7979 51.9897 31.8484 51.8976 31.8989C51.8306 31.9326 51.772 31.9663 51.705 31.9916C51.6213 32.0337 51.546 32.0674 51.4622 32.1095C51.4036 32.1347 51.3367 32.1684 51.2781 32.1937C51.1608 32.2442 51.0436 32.2947 50.9348 32.3368C50.8762 32.3621 50.826 32.3789 50.7674 32.4042C50.6585 32.4463 50.5413 32.4884 50.4325 32.5221C50.3739 32.5389 50.3236 32.5558 50.265 32.581C50.1646 32.6147 50.0557 32.6484 49.9553 32.6737C49.905 32.6905 49.8548 32.6989 49.8046 32.7158C49.6539 32.7579 49.5032 32.7916 49.3525 32.8253C49.3106 32.8337 49.2771 32.8421 49.2353 32.8505C49.1181 32.8758 48.9925 32.901 48.8753 32.9263C48.8251 32.9347 48.7748 32.9431 48.7246 32.9516C48.599 32.9768 48.4651 32.9937 48.3311 33.0105C48.2976 33.0105 48.2641 33.0189 48.239 33.0274C48.0799 33.0442 47.9125 33.061 47.7534 33.0695C47.7116 33.0695 47.6697 33.0779 47.6195 33.0779C47.4939 33.0863 47.3683 33.0947 47.2344 33.0947C47.1841 33.0947 47.1339 33.0947 47.0921 33.0947C46.9246 33.0947 46.7572 33.0947 46.5897 33.0947C43.4167 32.9937 40.6037 31.5368 38.6782 29.2968C38.4773 29.7768 38.268 30.2568 38.0335 30.7284C37.0875 32.6147 35.8903 34.3158 34.4922 35.7979C37.6317 38.6863 41.7591 40.5137 46.3469 40.6653C49.319 40.7663 52.1571 40.1432 54.6855 38.9726C54.6855 38.9726 54.6938 38.9726 54.6938 38.9642C54.9115 38.8632 55.1375 38.7537 55.3468 38.6442C55.3636 38.6358 55.372 38.6274 55.3887 38.6189C55.4808 38.5684 55.5729 38.5263 55.6566 38.4758C55.6817 38.4589 55.7068 38.4505 55.732 38.4337C55.8157 38.3916 55.891 38.341 55.9747 38.2989C55.9999 38.2821 56.025 38.2737 56.0501 38.2568C56.0752 38.24 56.1003 38.2316 56.1254 38.2147C58.4361 36.8589 60.4454 35.0231 61.9942 32.8253Z" fill="#FF5500"/>
<path d="M61.5 34.7199C61.5 34.7199 72.3166 42.5684 91.1704 22.9473L87.0597 19.6294L101.033 16.8757L100.003 29.6926L97.1229 27.4105C97.1229 27.4105 80.9147 51.2841 61.5 34.7199Z" fill="white"/>
<path d="M26.6897 43.7894C25.0153 44.7831 23.0562 45.3473 20.9716 45.3473C18.887 45.3473 16.9279 44.7831 15.2452 43.7894C12.0638 41.9115 8.5057 40.7747 4.82202 40.7747H3.81738C6.52154 47.6462 13.1857 52.4968 20.9716 52.4968C28.7576 52.4968 35.4217 47.6462 38.1258 40.7747H37.1212C33.4291 40.7831 29.871 41.9115 26.6897 43.7894Z" fill="white"/>
</g>
<defs>
<clipPath id="clip0">
<rect width="103.562" height="56" fill="white"/>
</clipPath>
</defs>
</svg>
