<svg width="23" height="22" viewBox="0 0 23 22" fill="none" xmlns="http://www.w3.org/2000/svg">
<g clip-path="url(#clip0)">
<path d="M5.61004 13.2948L4.84425 16.1536L2.04531 16.2128C1.20884 14.6614 0.734375 12.8863 0.734375 11C0.734375 9.17589 1.17798 7.45577 1.96431 5.94116H1.96491L4.45676 6.39801L5.54834 8.8749C5.31987 9.54096 5.19535 10.256 5.19535 11C5.19543 11.8074 5.3417 12.5811 5.61004 13.2948Z" fill="#FBBB00"/>
<path d="M22.5425 8.94507C22.6689 9.61048 22.7347 10.2977 22.7347 11C22.7347 11.7875 22.6519 12.5557 22.4942 13.2967C21.9587 15.8183 20.5595 18.0201 18.6213 19.5782L18.6206 19.5776L15.482 19.4175L15.0378 16.6445C16.324 15.8902 17.3291 14.7098 17.8586 13.2967H11.9766V8.94507H17.9444H22.5425Z" fill="#518EF8"/>
<path d="M18.6218 19.5777L18.6224 19.5783C16.7373 21.0935 14.3427 22.0001 11.7359 22.0001C7.54688 22.0001 3.9048 19.6587 2.04688 16.2131L5.61161 13.295C6.54055 15.7743 8.93215 17.5391 11.7359 17.5391C12.9411 17.5391 14.0701 17.2133 15.039 16.6446L18.6218 19.5777Z" fill="#28B446"/>
<path d="M18.7562 2.53241L15.1926 5.44981C14.19 4.82307 13.0047 4.46102 11.7349 4.46102C8.86764 4.46102 6.43132 6.30682 5.54891 8.87494L1.96545 5.9412H1.96484C3.79557 2.41154 7.48358 0 11.7349 0C14.4039 0 16.8511 0.950726 18.7562 2.53241Z" fill="#F14336"/>
</g>
<defs>
<clipPath id="clip0">
<rect width="22" height="22" fill="white" transform="translate(0.734375)"/>
</clipPath>
</defs>
</svg>
