<svg width="36" height="36" viewBox="0 0 36 36" fill="none" xmlns="http://www.w3.org/2000/svg">
<path d="M18.0045 0H17.9955C8.07075 0 0 8.073 0 18C0 21.9375 1.269 25.587 3.42675 28.5503L1.1835 35.2373L8.10225 33.0255C10.9485 34.911 14.3438 36 18.0045 36C27.9292 36 36 27.9247 36 18C36 8.07525 27.9292 0 18.0045 0Z" fill="#4CAF50"/>
<path d="M28.4792 25.4183C28.045 26.6445 26.3215 27.6615 24.9467 27.9585C24.0062 28.1588 22.7777 28.3185 18.6422 26.604C13.3525 24.4125 9.94597 19.0373 9.68047 18.6885C9.42622 18.3398 7.54297 15.8423 7.54297 13.2593C7.54297 10.6763 8.85472 9.41854 9.38347 8.87854C9.81772 8.43529 10.5355 8.23279 11.224 8.23279C11.4467 8.23279 11.647 8.24404 11.827 8.25304C12.3557 8.27554 12.6212 8.30704 12.97 9.14179C13.4042 10.188 14.4617 12.771 14.5877 13.0365C14.716 13.302 14.8442 13.662 14.6642 14.0108C14.4955 14.3708 14.347 14.5305 14.0815 14.8365C13.816 15.1425 13.564 15.3765 13.2985 15.705C13.0555 15.9908 12.781 16.2968 13.087 16.8255C13.393 17.343 14.4505 19.0688 16.0075 20.4548C18.0167 22.2435 19.6457 22.815 20.2285 23.058C20.6627 23.238 21.1802 23.1953 21.4975 22.8578C21.9002 22.4235 22.3975 21.7035 22.9037 20.9948C23.2637 20.4863 23.7182 20.4233 24.1952 20.6033C24.6812 20.772 27.253 22.0433 27.7817 22.3065C28.3105 22.572 28.6592 22.698 28.7875 22.9208C28.9135 23.1435 28.9135 24.1898 28.4792 25.4183Z" fill="#FAFAFA"/>
</svg>
