<svg width="37" height="36" viewBox="0 0 37 36" fill="none" xmlns="http://www.w3.org/2000/svg">
<path d="M33.3 0H3.7C1.665 0 0 1.62 0 3.6V32.4C0 34.38 1.665 36 3.7 36H33.3C35.335 36 37 34.38 37 32.4V3.6C37 1.62 35.335 0 33.3 0ZM29.045 13.14C28.86 21.42 23.495 27.18 15.355 27.54C12.025 27.72 9.62 26.64 7.4 25.38C9.805 25.7401 12.95 24.8401 14.615 23.4C12.21 23.22 10.73 21.96 9.99 19.98C10.73 20.16 11.47 19.98 12.025 19.98C9.805 19.26 8.325 18 8.14 15.12C8.695 15.48 9.435 15.66 10.175 15.66C8.51 14.76 7.4 11.34 8.695 9.18C11.1 11.7 14.06 13.86 18.87 14.22C17.575 9.18 24.6051 6.48 27.3801 9.9C28.6751 9.72 29.6001 9.18 30.5251 8.82C30.1551 10.08 29.4151 10.8 28.4901 11.52C29.4151 11.34 30.3401 11.16 31.0801 10.8C30.895 11.7 29.97 12.42 29.045 13.14Z" fill="#03A9F4"/>
</svg>
